<svg xmlns="http://www.w3.org/2000/svg" width="680" height="580" viewBox="0 0 680 580">
  <style>
    text { font-family: -apple-system, BlinkMacSystemFont, "Segoe UI", Roboto, sans-serif; }
  </style>
  <rect width="680" height="580" fill="white" rx="8"/>
  <text x="340" y="28" text-anchor="middle" font-size="15" font-weight="bold" fill="#111827">Decoding Speed (ops/s)</text>
  <text x="12" y="56" font-size="13" font-weight="600" fill="#374151">Primitives State1</text>
  <text x="126" y="78" text-anchor="end" font-size="11" fill="#6b7280">JSON</text>
  <rect x="130" y="64" width="66" height="20" fill="#f59e0b" rx="3"/>
  <text x="202.2940184953885" y="78" font-size="11" fill="#374151" font-weight="500">3.8M</text>
  <text x="126" y="102" text-anchor="end" font-size="11" fill="#6b7280">MessagePack</text>
  <rect x="130" y="88" width="77" height="20" fill="#8b5cf6" rx="3"/>
  <text x="213.17055126562093" y="102" font-size="11" fill="#374151" font-weight="500">4.4M</text>
  <text x="126" y="126" text-anchor="end" font-size="11" fill="#6b7280">Protobuf</text>
  <rect x="130" y="112" width="442" height="20" fill="#3b82f6" rx="3"/>
  <text x="578.6823570435364" y="126" font-size="11" fill="#374151" font-weight="500">25.1M</text>
  <text x="126" y="150" text-anchor="end" font-size="11" fill="#6b7280">DeltaPack</text>
  <rect x="130" y="136" width="456" height="20" fill="#10b981" rx="3"/>
  <text x="592" y="150" font-size="11" fill="#374151" font-weight="500">25.9M</text>
  <text x="12" y="188" font-size="13" font-weight="600" fill="#374151">Primitives State2</text>
  <text x="126" y="210" text-anchor="end" font-size="11" fill="#6b7280">JSON</text>
  <rect x="130" y="196" width="62" height="20" fill="#f59e0b" rx="3"/>
  <text x="198.49386087092304" y="210" font-size="11" fill="#374151" font-weight="500">3.8M</text>
  <text x="126" y="234" text-anchor="end" font-size="11" fill="#6b7280">MessagePack</text>
  <rect x="130" y="220" width="73" height="20" fill="#8b5cf6" rx="3"/>
  <text x="209.0155434624669" y="234" font-size="11" fill="#374151" font-weight="500">4.4M</text>
  <text x="126" y="258" text-anchor="end" font-size="11" fill="#6b7280">Protobuf</text>
  <rect x="130" y="244" width="456" height="20" fill="#3b82f6" rx="3"/>
  <text x="592" y="258" font-size="11" fill="#374151" font-weight="500">27.7M</text>
  <text x="126" y="282" text-anchor="end" font-size="11" fill="#6b7280">DeltaPack</text>
  <rect x="130" y="268" width="397" height="20" fill="#10b981" rx="3"/>
  <text x="533.7281033759407" y="282" font-size="11" fill="#374151" font-weight="500">24.2M</text>
  <text x="12" y="320" font-size="13" font-weight="600" fill="#374151">User State1</text>
  <text x="126" y="342" text-anchor="end" font-size="11" fill="#6b7280">JSON</text>
  <rect x="130" y="328" width="79" height="20" fill="#f59e0b" rx="3"/>
  <text x="215.3921414225677" y="342" font-size="11" fill="#374151" font-weight="500">548.3K</text>
  <text x="126" y="366" text-anchor="end" font-size="11" fill="#6b7280">MessagePack</text>
  <rect x="130" y="352" width="90" height="20" fill="#8b5cf6" rx="3"/>
  <text x="226.5263638242373" y="366" font-size="11" fill="#374151" font-weight="500">625.2K</text>
  <text x="126" y="390" text-anchor="end" font-size="11" fill="#6b7280">Protobuf</text>
  <rect x="130" y="376" width="345" height="20" fill="#3b82f6" rx="3"/>
  <text x="481.7593363824765" y="390" font-size="11" fill="#374151" font-weight="500">2.4M</text>
  <text x="126" y="414" text-anchor="end" font-size="11" fill="#6b7280">DeltaPack</text>
  <rect x="130" y="400" width="456" height="20" fill="#10b981" rx="3"/>
  <text x="592" y="414" font-size="11" fill="#374151" font-weight="500">3.1M</text>
  <text x="12" y="452" font-size="13" font-weight="600" fill="#374151">User State2</text>
  <text x="126" y="474" text-anchor="end" font-size="11" fill="#6b7280">JSON</text>
  <rect x="130" y="460" width="71" height="20" fill="#f59e0b" rx="3"/>
  <text x="207.09550505678612" y="474" font-size="11" fill="#374151" font-weight="500">345.1K</text>
  <text x="126" y="498" text-anchor="end" font-size="11" fill="#6b7280">MessagePack</text>
  <rect x="130" y="484" width="81" height="20" fill="#8b5cf6" rx="3"/>
  <text x="217.30881180971926" y="498" font-size="11" fill="#374151" font-weight="500">394.7K</text>
  <text x="126" y="522" text-anchor="end" font-size="11" fill="#6b7280">Protobuf</text>
  <rect x="130" y="508" width="358" height="20" fill="#3b82f6" rx="3"/>
  <text x="494.66743092860895" y="522" font-size="11" fill="#374151" font-weight="500">1.7M</text>
  <text x="126" y="546" text-anchor="end" font-size="11" fill="#6b7280">DeltaPack</text>
  <rect x="130" y="532" width="456" height="20" fill="#10b981" rx="3"/>
  <text x="592" y="546" font-size="11" fill="#374151" font-weight="500">2.2M</text>
</svg>