<svg xmlns="http://www.w3.org/2000/svg" width="680" height="1240" viewBox="0 0 680 1240">
  <style>
    text { font-family: -apple-system, BlinkMacSystemFont, "Segoe UI", Roboto, sans-serif; }
  </style>
  <rect width="680" height="1240" fill="white" rx="8"/>
  <text x="340" y="28" text-anchor="middle" font-size="15" font-weight="bold" fill="#111827">Decoding Speed (ops/s)</text>
  <text x="12" y="56" font-size="13" font-weight="600" fill="#374151">GameState State1</text>
  <text x="126" y="78" text-anchor="end" font-size="11" fill="#6b7280">JSON</text>
  <rect x="130" y="64" width="129.02095234881799" height="20" fill="#f59e0b" rx="3"/>
  <text x="265.020952348818" y="78" font-size="11" fill="#374151" font-weight="500">146.6K</text>
  <text x="126" y="102" text-anchor="end" font-size="11" fill="#6b7280">MessagePack</text>
  <rect x="130" y="88" width="79.81840651034436" height="20" fill="#8b5cf6" rx="3"/>
  <text x="215.81840651034435" y="102" font-size="11" fill="#374151" font-weight="500">90.7K</text>
  <text x="126" y="126" text-anchor="end" font-size="11" fill="#6b7280">Protobuf</text>
  <rect x="130" y="112" width="354.2665104967157" height="20" fill="#3b82f6" rx="3"/>
  <text x="490.2665104967157" y="126" font-size="11" fill="#374151" font-weight="500">402.5K</text>
  <text x="126" y="150" text-anchor="end" font-size="11" fill="#6b7280">DeltaPack</text>
  <rect x="130" y="136" width="456" height="20" fill="#10b981" rx="3"/>
  <text x="592" y="150" font-size="11" fill="#374151" font-weight="500">518.1K</text>
  <text x="12" y="188" font-size="13" font-weight="600" fill="#374151">GameState State2</text>
  <text x="126" y="210" text-anchor="end" font-size="11" fill="#6b7280">JSON</text>
  <rect x="130" y="196" width="150.6710708567557" height="20" fill="#f59e0b" rx="3"/>
  <text x="286.6710708567557" y="210" font-size="11" fill="#374151" font-weight="500">69.4K</text>
  <text x="126" y="234" text-anchor="end" font-size="11" fill="#6b7280">MessagePack</text>
  <rect x="130" y="220" width="95.82695896401827" height="20" fill="#8b5cf6" rx="3"/>
  <text x="231.82695896401827" y="234" font-size="11" fill="#374151" font-weight="500">44.2K</text>
  <text x="126" y="258" text-anchor="end" font-size="11" fill="#6b7280">Protobuf</text>
  <rect x="130" y="244" width="377.6390559681273" height="20" fill="#3b82f6" rx="3"/>
  <text x="513.6390559681273" y="258" font-size="11" fill="#374151" font-weight="500">174.0K</text>
  <text x="126" y="282" text-anchor="end" font-size="11" fill="#6b7280">DeltaPack</text>
  <rect x="130" y="268" width="456" height="20" fill="#10b981" rx="3"/>
  <text x="592" y="282" font-size="11" fill="#374151" font-weight="500">210.1K</text>
  <text x="12" y="320" font-size="13" font-weight="600" fill="#374151">GameState State3</text>
  <text x="126" y="342" text-anchor="end" font-size="11" fill="#6b7280">JSON</text>
  <rect x="130" y="328" width="151.32251669783588" height="20" fill="#f59e0b" rx="3"/>
  <text x="287.3225166978359" y="342" font-size="11" fill="#374151" font-weight="500">69.6K</text>
  <text x="126" y="366" text-anchor="end" font-size="11" fill="#6b7280">MessagePack</text>
  <rect x="130" y="352" width="96.16337325683648" height="20" fill="#8b5cf6" rx="3"/>
  <text x="232.16337325683648" y="366" font-size="11" fill="#374151" font-weight="500">44.2K</text>
  <text x="126" y="390" text-anchor="end" font-size="11" fill="#6b7280">Protobuf</text>
  <rect x="130" y="376" width="377.32356826544407" height="20" fill="#3b82f6" rx="3"/>
  <text x="513.323568265444" y="390" font-size="11" fill="#374151" font-weight="500">173.4K</text>
  <text x="126" y="414" text-anchor="end" font-size="11" fill="#6b7280">DeltaPack</text>
  <rect x="130" y="400" width="456" height="20" fill="#10b981" rx="3"/>
  <text x="592" y="414" font-size="11" fill="#374151" font-weight="500">209.6K</text>
  <text x="12" y="452" font-size="13" font-weight="600" fill="#374151">Primitives State1</text>
  <text x="126" y="474" text-anchor="end" font-size="11" fill="#6b7280">JSON</text>
  <rect x="130" y="460" width="138.40329122063966" height="20" fill="#f59e0b" rx="3"/>
  <text x="274.40329122063963" y="474" font-size="11" fill="#374151" font-weight="500">3.9M</text>
  <text x="126" y="498" text-anchor="end" font-size="11" fill="#6b7280">MessagePack</text>
  <rect x="130" y="484" width="226.88758209185815" height="20" fill="#8b5cf6" rx="3"/>
  <text x="362.8875820918581" y="498" font-size="11" fill="#374151" font-weight="500">6.4M</text>
  <text x="126" y="522" text-anchor="end" font-size="11" fill="#6b7280">Protobuf</text>
  <rect x="130" y="508" width="456" height="20" fill="#3b82f6" rx="3"/>
  <text x="592" y="522" font-size="11" fill="#374151" font-weight="500">13.0M</text>
  <text x="126" y="546" text-anchor="end" font-size="11" fill="#6b7280">DeltaPack</text>
  <rect x="130" y="532" width="405.74560387194276" height="20" fill="#10b981" rx="3"/>
  <text x="541.7456038719428" y="546" font-size="11" fill="#374151" font-weight="500">11.5M</text>
  <text x="12" y="584" font-size="13" font-weight="600" fill="#374151">Primitives State2</text>
  <text x="126" y="606" text-anchor="end" font-size="11" fill="#6b7280">JSON</text>
  <rect x="130" y="592" width="141.02483099016405" height="20" fill="#f59e0b" rx="3"/>
  <text x="277.02483099016405" y="606" font-size="11" fill="#374151" font-weight="500">4.0M</text>
  <text x="126" y="630" text-anchor="end" font-size="11" fill="#6b7280">MessagePack</text>
  <rect x="130" y="616" width="226.35315570352006" height="20" fill="#8b5cf6" rx="3"/>
  <text x="362.3531557035201" y="630" font-size="11" fill="#374151" font-weight="500">6.4M</text>
  <text x="126" y="654" text-anchor="end" font-size="11" fill="#6b7280">Protobuf</text>
  <rect x="130" y="640" width="456" height="20" fill="#3b82f6" rx="3"/>
  <text x="592" y="654" font-size="11" fill="#374151" font-weight="500">12.8M</text>
  <text x="126" y="678" text-anchor="end" font-size="11" fill="#6b7280">DeltaPack</text>
  <rect x="130" y="664" width="399.83515039443324" height="20" fill="#10b981" rx="3"/>
  <text x="535.8351503944332" y="678" font-size="11" fill="#374151" font-weight="500">11.2M</text>
  <text x="12" y="716" font-size="13" font-weight="600" fill="#374151">Test State1</text>
  <text x="126" y="738" text-anchor="end" font-size="11" fill="#6b7280">JSON</text>
  <rect x="130" y="724" width="126.27967927277372" height="20" fill="#f59e0b" rx="3"/>
  <text x="262.2796792727737" y="738" font-size="11" fill="#374151" font-weight="500">1.6M</text>
  <text x="126" y="762" text-anchor="end" font-size="11" fill="#6b7280">MessagePack</text>
  <rect x="130" y="748" width="128.46681368602626" height="20" fill="#8b5cf6" rx="3"/>
  <text x="264.4668136860263" y="762" font-size="11" fill="#374151" font-weight="500">1.6M</text>
  <text x="126" y="786" text-anchor="end" font-size="11" fill="#6b7280">Protobuf</text>
  <rect x="130" y="772" width="456" height="20" fill="#3b82f6" rx="3"/>
  <text x="592" y="786" font-size="11" fill="#374151" font-weight="500">5.8M</text>
  <text x="126" y="810" text-anchor="end" font-size="11" fill="#6b7280">DeltaPack</text>
  <rect x="130" y="796" width="434.1866529076" height="20" fill="#10b981" rx="3"/>
  <text x="570.1866529076" y="810" font-size="11" fill="#374151" font-weight="500">5.5M</text>
  <text x="12" y="848" font-size="13" font-weight="600" fill="#374151">Test State2</text>
  <text x="126" y="870" text-anchor="end" font-size="11" fill="#6b7280">JSON</text>
  <rect x="130" y="856" width="125.73877503751186" height="20" fill="#f59e0b" rx="3"/>
  <text x="261.73877503751186" y="870" font-size="11" fill="#374151" font-weight="500">1.6M</text>
  <text x="126" y="894" text-anchor="end" font-size="11" fill="#6b7280">MessagePack</text>
  <rect x="130" y="880" width="127.63556962176521" height="20" fill="#8b5cf6" rx="3"/>
  <text x="263.6355696217652" y="894" font-size="11" fill="#374151" font-weight="500">1.6M</text>
  <text x="126" y="918" text-anchor="end" font-size="11" fill="#6b7280">Protobuf</text>
  <rect x="130" y="904" width="456" height="20" fill="#3b82f6" rx="3"/>
  <text x="592" y="918" font-size="11" fill="#374151" font-weight="500">5.8M</text>
  <text x="126" y="942" text-anchor="end" font-size="11" fill="#6b7280">DeltaPack</text>
  <rect x="130" y="928" width="438.4318808649419" height="20" fill="#10b981" rx="3"/>
  <text x="574.4318808649418" y="942" font-size="11" fill="#374151" font-weight="500">5.6M</text>
  <text x="12" y="980" font-size="13" font-weight="600" fill="#374151">User State1</text>
  <text x="126" y="1002" text-anchor="end" font-size="11" fill="#6b7280">JSON</text>
  <rect x="130" y="988" width="226.41638864640782" height="20" fill="#f59e0b" rx="3"/>
  <text x="362.4163886464078" y="1002" font-size="11" fill="#374151" font-weight="500">719.3K</text>
  <text x="126" y="1026" text-anchor="end" font-size="11" fill="#6b7280">MessagePack</text>
  <rect x="130" y="1012" width="178.3433410950661" height="20" fill="#8b5cf6" rx="3"/>
  <text x="314.3433410950661" y="1026" font-size="11" fill="#374151" font-weight="500">566.6K</text>
  <text x="126" y="1050" text-anchor="end" font-size="11" fill="#6b7280">Protobuf</text>
  <rect x="130" y="1036" width="456" height="20" fill="#3b82f6" rx="3"/>
  <text x="592" y="1050" font-size="11" fill="#374151" font-weight="500">1.4M</text>
  <text x="126" y="1074" text-anchor="end" font-size="11" fill="#6b7280">DeltaPack</text>
  <rect x="130" y="1060" width="365.10735773851843" height="20" fill="#10b981" rx="3"/>
  <text x="501.10735773851843" y="1074" font-size="11" fill="#374151" font-weight="500">1.2M</text>
  <text x="12" y="1112" font-size="13" font-weight="600" fill="#374151">User State2</text>
  <text x="126" y="1134" text-anchor="end" font-size="11" fill="#6b7280">JSON</text>
  <rect x="130" y="1120" width="170.8840706761995" height="20" fill="#f59e0b" rx="3"/>
  <text x="306.8840706761995" y="1134" font-size="11" fill="#374151" font-weight="500">375.1K</text>
  <text x="126" y="1158" text-anchor="end" font-size="11" fill="#6b7280">MessagePack</text>
  <rect x="130" y="1144" width="154.83532514902512" height="20" fill="#8b5cf6" rx="3"/>
  <text x="290.83532514902515" y="1158" font-size="11" fill="#374151" font-weight="500">339.9K</text>
  <text x="126" y="1182" text-anchor="end" font-size="11" fill="#6b7280">Protobuf</text>
  <rect x="130" y="1168" width="456" height="20" fill="#3b82f6" rx="3"/>
  <text x="592" y="1182" font-size="11" fill="#374151" font-weight="500">1.0M</text>
  <text x="126" y="1206" text-anchor="end" font-size="11" fill="#6b7280">DeltaPack</text>
  <rect x="130" y="1192" width="366.27754481880476" height="20" fill="#10b981" rx="3"/>
  <text x="502.27754481880476" y="1206" font-size="11" fill="#374151" font-weight="500">804.0K</text>
</svg>