<svg xmlns="http://www.w3.org/2000/svg" width="680" height="1240" viewBox="0 0 680 1240">
  <style>
    text { font-family: -apple-system, BlinkMacSystemFont, "Segoe UI", Roboto, sans-serif; }
  </style>
  <rect width="680" height="1240" fill="white" rx="8"/>
  <text x="340" y="28" text-anchor="middle" font-size="15" font-weight="bold" fill="#111827">Encoding Speed (ops/s)</text>
  <text x="12" y="56" font-size="13" font-weight="600" fill="#374151">GameState State1</text>
  <text x="126" y="78" text-anchor="end" font-size="11" fill="#6b7280">JSON</text>
  <rect x="130" y="64" width="134.17871354343478" height="20" fill="#f59e0b" rx="3"/>
  <text x="270.1787135434348" y="78" font-size="11" fill="#374151" font-weight="500">171.4K</text>
  <text x="126" y="102" text-anchor="end" font-size="11" fill="#6b7280">MessagePack</text>
  <rect x="130" y="88" width="109.57681044977777" height="20" fill="#8b5cf6" rx="3"/>
  <text x="245.57681044977778" y="102" font-size="11" fill="#374151" font-weight="500">140.0K</text>
  <text x="126" y="126" text-anchor="end" font-size="11" fill="#6b7280">Protobuf</text>
  <rect x="130" y="112" width="128.93331067641975" height="20" fill="#3b82f6" rx="3"/>
  <text x="264.93331067641975" y="126" font-size="11" fill="#374151" font-weight="500">164.7K</text>
  <text x="126" y="150" text-anchor="end" font-size="11" fill="#6b7280">DeltaPack</text>
  <rect x="130" y="136" width="456" height="20" fill="#10b981" rx="3"/>
  <text x="592" y="150" font-size="11" fill="#374151" font-weight="500">582.5K</text>
  <text x="12" y="188" font-size="13" font-weight="600" fill="#374151">GameState State2</text>
  <text x="126" y="210" text-anchor="end" font-size="11" fill="#6b7280">JSON</text>
  <rect x="130" y="196" width="174.9946456365129" height="20" fill="#f59e0b" rx="3"/>
  <text x="310.9946456365129" y="210" font-size="11" fill="#374151" font-weight="500">86.1K</text>
  <text x="126" y="234" text-anchor="end" font-size="11" fill="#6b7280">MessagePack</text>
  <rect x="130" y="220" width="130.4749056370958" height="20" fill="#8b5cf6" rx="3"/>
  <text x="266.4749056370958" y="234" font-size="11" fill="#374151" font-weight="500">64.2K</text>
  <text x="126" y="258" text-anchor="end" font-size="11" fill="#6b7280">Protobuf</text>
  <rect x="130" y="244" width="148.09774524668245" height="20" fill="#3b82f6" rx="3"/>
  <text x="284.09774524668245" y="258" font-size="11" fill="#374151" font-weight="500">72.9K</text>
  <text x="126" y="282" text-anchor="end" font-size="11" fill="#6b7280">DeltaPack</text>
  <rect x="130" y="268" width="456" height="20" fill="#10b981" rx="3"/>
  <text x="592" y="282" font-size="11" fill="#374151" font-weight="500">224.4K</text>
  <text x="12" y="320" font-size="13" font-weight="600" fill="#374151">GameState State3</text>
  <text x="126" y="342" text-anchor="end" font-size="11" fill="#6b7280">JSON</text>
  <rect x="130" y="328" width="172.3201390026217" height="20" fill="#f59e0b" rx="3"/>
  <text x="308.32013900262166" y="342" font-size="11" fill="#374151" font-weight="500">84.8K</text>
  <text x="126" y="366" text-anchor="end" font-size="11" fill="#6b7280">MessagePack</text>
  <rect x="130" y="352" width="126.47861489829099" height="20" fill="#8b5cf6" rx="3"/>
  <text x="262.47861489829097" y="366" font-size="11" fill="#374151" font-weight="500">62.2K</text>
  <text x="126" y="390" text-anchor="end" font-size="11" fill="#6b7280">Protobuf</text>
  <rect x="130" y="376" width="145.10954450444427" height="20" fill="#3b82f6" rx="3"/>
  <text x="281.1095445044443" y="390" font-size="11" fill="#374151" font-weight="500">71.4K</text>
  <text x="126" y="414" text-anchor="end" font-size="11" fill="#6b7280">DeltaPack</text>
  <rect x="130" y="400" width="456" height="20" fill="#10b981" rx="3"/>
  <text x="592" y="414" font-size="11" fill="#374151" font-weight="500">224.3K</text>
  <text x="12" y="452" font-size="13" font-weight="600" fill="#374151">Primitives State1</text>
  <text x="126" y="474" text-anchor="end" font-size="11" fill="#6b7280">JSON</text>
  <rect x="130" y="460" width="180.55701294229496" height="20" fill="#f59e0b" rx="3"/>
  <text x="316.55701294229493" y="474" font-size="11" fill="#374151" font-weight="500">2.8M</text>
  <text x="126" y="498" text-anchor="end" font-size="11" fill="#6b7280">MessagePack</text>
  <rect x="130" y="484" width="229.17831063777308" height="20" fill="#8b5cf6" rx="3"/>
  <text x="365.17831063777305" y="498" font-size="11" fill="#374151" font-weight="500">3.6M</text>
  <text x="126" y="522" text-anchor="end" font-size="11" fill="#6b7280">Protobuf</text>
  <rect x="130" y="508" width="343.8268547916217" height="20" fill="#3b82f6" rx="3"/>
  <text x="479.8268547916217" y="522" font-size="11" fill="#374151" font-weight="500">5.4M</text>
  <text x="126" y="546" text-anchor="end" font-size="11" fill="#6b7280">DeltaPack</text>
  <rect x="130" y="532" width="456" height="20" fill="#10b981" rx="3"/>
  <text x="592" y="546" font-size="11" fill="#374151" font-weight="500">7.1M</text>
  <text x="12" y="584" font-size="13" font-weight="600" fill="#374151">Primitives State2</text>
  <text x="126" y="606" text-anchor="end" font-size="11" fill="#6b7280">JSON</text>
  <rect x="130" y="592" width="179.30627347170014" height="20" fill="#f59e0b" rx="3"/>
  <text x="315.30627347170014" y="606" font-size="11" fill="#374151" font-weight="500">2.8M</text>
  <text x="126" y="630" text-anchor="end" font-size="11" fill="#6b7280">MessagePack</text>
  <rect x="130" y="616" width="225.1233726467077" height="20" fill="#8b5cf6" rx="3"/>
  <text x="361.1233726467077" y="630" font-size="11" fill="#374151" font-weight="500">3.5M</text>
  <text x="126" y="654" text-anchor="end" font-size="11" fill="#6b7280">Protobuf</text>
  <rect x="130" y="640" width="344.23348109087397" height="20" fill="#3b82f6" rx="3"/>
  <text x="480.23348109087397" y="654" font-size="11" fill="#374151" font-weight="500">5.4M</text>
  <text x="126" y="678" text-anchor="end" font-size="11" fill="#6b7280">DeltaPack</text>
  <rect x="130" y="664" width="456" height="20" fill="#10b981" rx="3"/>
  <text x="592" y="678" font-size="11" fill="#374151" font-weight="500">7.2M</text>
  <text x="12" y="716" font-size="13" font-weight="600" fill="#374151">Test State1</text>
  <text x="126" y="738" text-anchor="end" font-size="11" fill="#6b7280">JSON</text>
  <rect x="130" y="724" width="182.35836427956684" height="20" fill="#f59e0b" rx="3"/>
  <text x="318.35836427956684" y="738" font-size="11" fill="#374151" font-weight="500">1.6M</text>
  <text x="126" y="762" text-anchor="end" font-size="11" fill="#6b7280">MessagePack</text>
  <rect x="130" y="748" width="248.87544416228832" height="20" fill="#8b5cf6" rx="3"/>
  <text x="384.8754441622883" y="762" font-size="11" fill="#374151" font-weight="500">2.2M</text>
  <text x="126" y="786" text-anchor="end" font-size="11" fill="#6b7280">Protobuf</text>
  <rect x="130" y="772" width="272.1361368876393" height="20" fill="#3b82f6" rx="3"/>
  <text x="408.1361368876393" y="786" font-size="11" fill="#374151" font-weight="500">2.4M</text>
  <text x="126" y="810" text-anchor="end" font-size="11" fill="#6b7280">DeltaPack</text>
  <rect x="130" y="796" width="456" height="20" fill="#10b981" rx="3"/>
  <text x="592" y="810" font-size="11" fill="#374151" font-weight="500">3.9M</text>
  <text x="12" y="848" font-size="13" font-weight="600" fill="#374151">Test State2</text>
  <text x="126" y="870" text-anchor="end" font-size="11" fill="#6b7280">JSON</text>
  <rect x="130" y="856" width="184.1868543697552" height="20" fill="#f59e0b" rx="3"/>
  <text x="320.1868543697552" y="870" font-size="11" fill="#374151" font-weight="500">1.6M</text>
  <text x="126" y="894" text-anchor="end" font-size="11" fill="#6b7280">MessagePack</text>
  <rect x="130" y="880" width="250.34529268890063" height="20" fill="#8b5cf6" rx="3"/>
  <text x="386.3452926889006" y="894" font-size="11" fill="#374151" font-weight="500">2.2M</text>
  <text x="126" y="918" text-anchor="end" font-size="11" fill="#6b7280">Protobuf</text>
  <rect x="130" y="904" width="275.63491253584624" height="20" fill="#3b82f6" rx="3"/>
  <text x="411.63491253584624" y="918" font-size="11" fill="#374151" font-weight="500">2.4M</text>
  <text x="126" y="942" text-anchor="end" font-size="11" fill="#6b7280">DeltaPack</text>
  <rect x="130" y="928" width="456" height="20" fill="#10b981" rx="3"/>
  <text x="592" y="942" font-size="11" fill="#374151" font-weight="500">3.9M</text>
  <text x="12" y="980" font-size="13" font-weight="600" fill="#374151">User State1</text>
  <text x="126" y="1002" text-anchor="end" font-size="11" fill="#6b7280">JSON</text>
  <rect x="130" y="988" width="214.21915346509792" height="20" fill="#f59e0b" rx="3"/>
  <text x="350.2191534650979" y="1002" font-size="11" fill="#374151" font-weight="500">822.3K</text>
  <text x="126" y="1026" text-anchor="end" font-size="11" fill="#6b7280">MessagePack</text>
  <rect x="130" y="1012" width="184.85998041449997" height="20" fill="#8b5cf6" rx="3"/>
  <text x="320.8599804145" y="1026" font-size="11" fill="#374151" font-weight="500">709.6K</text>
  <text x="126" y="1050" text-anchor="end" font-size="11" fill="#6b7280">Protobuf</text>
  <rect x="130" y="1036" width="204.94088624071622" height="20" fill="#3b82f6" rx="3"/>
  <text x="340.9408862407162" y="1050" font-size="11" fill="#374151" font-weight="500">786.7K</text>
  <text x="126" y="1074" text-anchor="end" font-size="11" fill="#6b7280">DeltaPack</text>
  <rect x="130" y="1060" width="456" height="20" fill="#10b981" rx="3"/>
  <text x="592" y="1074" font-size="11" fill="#374151" font-weight="500">1.8M</text>
  <text x="12" y="1112" font-size="13" font-weight="600" fill="#374151">User State2</text>
  <text x="126" y="1134" text-anchor="end" font-size="11" fill="#6b7280">JSON</text>
  <rect x="130" y="1120" width="148.40568329680968" height="20" fill="#f59e0b" rx="3"/>
  <text x="284.4056832968097" y="1134" font-size="11" fill="#374151" font-weight="500">372.9K</text>
  <text x="126" y="1158" text-anchor="end" font-size="11" fill="#6b7280">MessagePack</text>
  <rect x="130" y="1144" width="172.31844404784331" height="20" fill="#8b5cf6" rx="3"/>
  <text x="308.3184440478433" y="1158" font-size="11" fill="#374151" font-weight="500">432.9K</text>
  <text x="126" y="1182" text-anchor="end" font-size="11" fill="#6b7280">Protobuf</text>
  <rect x="130" y="1168" width="214.735763322501" height="20" fill="#3b82f6" rx="3"/>
  <text x="350.735763322501" y="1182" font-size="11" fill="#374151" font-weight="500">539.5K</text>
  <text x="126" y="1206" text-anchor="end" font-size="11" fill="#6b7280">DeltaPack</text>
  <rect x="130" y="1192" width="456" height="20" fill="#10b981" rx="3"/>
  <text x="592" y="1206" font-size="11" fill="#374151" font-weight="500">1.1M</text>
</svg>