<svg xmlns="http://www.w3.org/2000/svg" width="680" height="1240" viewBox="0 0 680 1240">
  <style>
    text { font-family: -apple-system, BlinkMacSystemFont, "Segoe UI", Roboto, sans-serif; }
  </style>
  <rect width="680" height="1240" fill="white" rx="8"/>
  <text x="340" y="28" text-anchor="middle" font-size="15" font-weight="bold" fill="#111827">Decoding Speed (ops/s)</text>
  <text x="12" y="56" font-size="13" font-weight="600" fill="#374151">GameState State1</text>
  <text x="126" y="78" text-anchor="end" font-size="11" fill="#6b7280">JSON</text>
  <rect x="130" y="64" width="81" height="20" fill="#f59e0b" rx="3"/>
  <text x="217" y="78" font-size="11" fill="#374151" font-weight="500">176.2K</text>
  <text x="126" y="102" text-anchor="end" font-size="11" fill="#6b7280">MessagePack</text>
  <rect x="130" y="88" width="108" height="20" fill="#8b5cf6" rx="3"/>
  <text x="244" y="102" font-size="11" fill="#374151" font-weight="500">236.0K</text>
  <text x="126" y="126" text-anchor="end" font-size="11" fill="#6b7280">Protobuf</text>
  <rect x="130" y="112" width="211" height="20" fill="#3b82f6" rx="3"/>
  <text x="347" y="126" font-size="11" fill="#374151" font-weight="500">458.4K</text>
  <text x="126" y="150" text-anchor="end" font-size="11" fill="#6b7280">DeltaPack</text>
  <rect x="130" y="136" width="456" height="20" fill="#10b981" rx="3"/>
  <text x="592" y="150" font-size="11" fill="#374151" font-weight="500">993.0K</text>
  <text x="12" y="188" font-size="13" font-weight="600" fill="#374151">GameState State2</text>
  <text x="126" y="210" text-anchor="end" font-size="11" fill="#6b7280">JSON</text>
  <rect x="130" y="196" width="87" height="20" fill="#f59e0b" rx="3"/>
  <text x="223" y="210" font-size="11" fill="#374151" font-weight="500">86.7K</text>
  <text x="126" y="234" text-anchor="end" font-size="11" fill="#6b7280">MessagePack</text>
  <rect x="130" y="220" width="116" height="20" fill="#8b5cf6" rx="3"/>
  <text x="252" y="234" font-size="11" fill="#374151" font-weight="500">115.5K</text>
  <text x="126" y="258" text-anchor="end" font-size="11" fill="#6b7280">Protobuf</text>
  <rect x="130" y="244" width="327" height="20" fill="#3b82f6" rx="3"/>
  <text x="463" y="258" font-size="11" fill="#374151" font-weight="500">325.8K</text>
  <text x="126" y="282" text-anchor="end" font-size="11" fill="#6b7280">DeltaPack</text>
  <rect x="130" y="268" width="456" height="20" fill="#10b981" rx="3"/>
  <text x="592" y="282" font-size="11" fill="#374151" font-weight="500">454.1K</text>
  <text x="12" y="320" font-size="13" font-weight="600" fill="#374151">GameState State3</text>
  <text x="126" y="342" text-anchor="end" font-size="11" fill="#6b7280">JSON</text>
  <rect x="130" y="328" width="87" height="20" fill="#f59e0b" rx="3"/>
  <text x="223" y="342" font-size="11" fill="#374151" font-weight="500">87.3K</text>
  <text x="126" y="366" text-anchor="end" font-size="11" fill="#6b7280">MessagePack</text>
  <rect x="130" y="352" width="116" height="20" fill="#8b5cf6" rx="3"/>
  <text x="252" y="366" font-size="11" fill="#374151" font-weight="500">115.5K</text>
  <text x="126" y="390" text-anchor="end" font-size="11" fill="#6b7280">Protobuf</text>
  <rect x="130" y="376" width="328" height="20" fill="#3b82f6" rx="3"/>
  <text x="464" y="390" font-size="11" fill="#374151" font-weight="500">327.6K</text>
  <text x="126" y="414" text-anchor="end" font-size="11" fill="#6b7280">DeltaPack</text>
  <rect x="130" y="400" width="456" height="20" fill="#10b981" rx="3"/>
  <text x="592" y="414" font-size="11" fill="#374151" font-weight="500">455.9K</text>
  <text x="12" y="452" font-size="13" font-weight="600" fill="#374151">Primitives State1</text>
  <text x="126" y="474" text-anchor="end" font-size="11" fill="#6b7280">JSON</text>
  <rect x="130" y="460" width="106" height="20" fill="#f59e0b" rx="3"/>
  <text x="242" y="474" font-size="11" fill="#374151" font-weight="500">5.6M</text>
  <text x="126" y="498" text-anchor="end" font-size="11" fill="#6b7280">MessagePack</text>
  <rect x="130" y="484" width="110" height="20" fill="#8b5cf6" rx="3"/>
  <text x="246" y="498" font-size="11" fill="#374151" font-weight="500">5.8M</text>
  <text x="126" y="522" text-anchor="end" font-size="11" fill="#6b7280">Protobuf</text>
  <rect x="130" y="508" width="327" height="20" fill="#3b82f6" rx="3"/>
  <text x="463" y="522" font-size="11" fill="#374151" font-weight="500">17.2M</text>
  <text x="126" y="546" text-anchor="end" font-size="11" fill="#6b7280">DeltaPack</text>
  <rect x="130" y="532" width="456" height="20" fill="#10b981" rx="3"/>
  <text x="592" y="546" font-size="11" fill="#374151" font-weight="500">24.0M</text>
  <text x="12" y="584" font-size="13" font-weight="600" fill="#374151">Primitives State2</text>
  <text x="126" y="606" text-anchor="end" font-size="11" fill="#6b7280">JSON</text>
  <rect x="130" y="592" width="108" height="20" fill="#f59e0b" rx="3"/>
  <text x="244" y="606" font-size="11" fill="#374151" font-weight="500">5.6M</text>
  <text x="126" y="630" text-anchor="end" font-size="11" fill="#6b7280">MessagePack</text>
  <rect x="130" y="616" width="110" height="20" fill="#8b5cf6" rx="3"/>
  <text x="246" y="630" font-size="11" fill="#374151" font-weight="500">5.7M</text>
  <text x="126" y="654" text-anchor="end" font-size="11" fill="#6b7280">Protobuf</text>
  <rect x="130" y="640" width="357" height="20" fill="#3b82f6" rx="3"/>
  <text x="493" y="654" font-size="11" fill="#374151" font-weight="500">18.5M</text>
  <text x="126" y="678" text-anchor="end" font-size="11" fill="#6b7280">DeltaPack</text>
  <rect x="130" y="664" width="456" height="20" fill="#10b981" rx="3"/>
  <text x="592" y="678" font-size="11" fill="#374151" font-weight="500">23.6M</text>
  <text x="12" y="716" font-size="13" font-weight="600" fill="#374151">Test State1</text>
  <text x="126" y="738" text-anchor="end" font-size="11" fill="#6b7280">JSON</text>
  <rect x="130" y="724" width="103" height="20" fill="#f59e0b" rx="3"/>
  <text x="239" y="738" font-size="11" fill="#374151" font-weight="500">2.1M</text>
  <text x="126" y="762" text-anchor="end" font-size="11" fill="#6b7280">MessagePack</text>
  <rect x="130" y="748" width="153" height="20" fill="#8b5cf6" rx="3"/>
  <text x="289" y="762" font-size="11" fill="#374151" font-weight="500">3.2M</text>
  <text x="126" y="786" text-anchor="end" font-size="11" fill="#6b7280">Protobuf</text>
  <rect x="130" y="772" width="299" height="20" fill="#3b82f6" rx="3"/>
  <text x="435" y="786" font-size="11" fill="#374151" font-weight="500">6.2M</text>
  <text x="126" y="810" text-anchor="end" font-size="11" fill="#6b7280">DeltaPack</text>
  <rect x="130" y="796" width="456" height="20" fill="#10b981" rx="3"/>
  <text x="592" y="810" font-size="11" fill="#374151" font-weight="500">9.5M</text>
  <text x="12" y="848" font-size="13" font-weight="600" fill="#374151">Test State2</text>
  <text x="126" y="870" text-anchor="end" font-size="11" fill="#6b7280">JSON</text>
  <rect x="130" y="856" width="103" height="20" fill="#f59e0b" rx="3"/>
  <text x="239" y="870" font-size="11" fill="#374151" font-weight="500">2.1M</text>
  <text x="126" y="894" text-anchor="end" font-size="11" fill="#6b7280">MessagePack</text>
  <rect x="130" y="880" width="154" height="20" fill="#8b5cf6" rx="3"/>
  <text x="290" y="894" font-size="11" fill="#374151" font-weight="500">3.2M</text>
  <text x="126" y="918" text-anchor="end" font-size="11" fill="#6b7280">Protobuf</text>
  <rect x="130" y="904" width="304" height="20" fill="#3b82f6" rx="3"/>
  <text x="440" y="918" font-size="11" fill="#374151" font-weight="500">6.3M</text>
  <text x="126" y="942" text-anchor="end" font-size="11" fill="#6b7280">DeltaPack</text>
  <rect x="130" y="928" width="456" height="20" fill="#10b981" rx="3"/>
  <text x="592" y="942" font-size="11" fill="#374151" font-weight="500">9.4M</text>
  <text x="12" y="980" font-size="13" font-weight="600" fill="#374151">User State1</text>
  <text x="126" y="1002" text-anchor="end" font-size="11" fill="#6b7280">JSON</text>
  <rect x="130" y="988" width="193" height="20" fill="#f59e0b" rx="3"/>
  <text x="329" y="1002" font-size="11" fill="#374151" font-weight="500">1.1M</text>
  <text x="126" y="1026" text-anchor="end" font-size="11" fill="#6b7280">MessagePack</text>
  <rect x="130" y="1012" width="163" height="20" fill="#8b5cf6" rx="3"/>
  <text x="299" y="1026" font-size="11" fill="#374151" font-weight="500">937.7K</text>
  <text x="126" y="1050" text-anchor="end" font-size="11" fill="#6b7280">Protobuf</text>
  <rect x="130" y="1036" width="456" height="20" fill="#3b82f6" rx="3"/>
  <text x="592" y="1050" font-size="11" fill="#374151" font-weight="500">2.6M</text>
  <text x="126" y="1074" text-anchor="end" font-size="11" fill="#6b7280">DeltaPack</text>
  <rect x="130" y="1060" width="404" height="20" fill="#10b981" rx="3"/>
  <text x="540" y="1074" font-size="11" fill="#374151" font-weight="500">2.3M</text>
  <text x="12" y="1112" font-size="13" font-weight="600" fill="#374151">User State2</text>
  <text x="126" y="1134" text-anchor="end" font-size="11" fill="#6b7280">JSON</text>
  <rect x="130" y="1120" width="171" height="20" fill="#f59e0b" rx="3"/>
  <text x="307" y="1134" font-size="11" fill="#374151" font-weight="500">674.8K</text>
  <text x="126" y="1158" text-anchor="end" font-size="11" fill="#6b7280">MessagePack</text>
  <rect x="130" y="1144" width="154" height="20" fill="#8b5cf6" rx="3"/>
  <text x="290" y="1158" font-size="11" fill="#374151" font-weight="500">606.5K</text>
  <text x="126" y="1182" text-anchor="end" font-size="11" fill="#6b7280">Protobuf</text>
  <rect x="130" y="1168" width="456" height="20" fill="#3b82f6" rx="3"/>
  <text x="592" y="1182" font-size="11" fill="#374151" font-weight="500">1.8M</text>
  <text x="126" y="1206" text-anchor="end" font-size="11" fill="#6b7280">DeltaPack</text>
  <rect x="130" y="1192" width="393" height="20" fill="#10b981" rx="3"/>
  <text x="529" y="1206" font-size="11" fill="#374151" font-weight="500">1.5M</text>
</svg>
