<svg xmlns="http://www.w3.org/2000/svg" width="680" height="1504" viewBox="0 0 680 1504">
  <style>
    text { font-family: -apple-system, BlinkMacSystemFont, "Segoe UI", Roboto, sans-serif; }
  </style>
  <rect width="680" height="1504" fill="white" rx="8"/>
  <text x="340" y="28" text-anchor="middle" font-size="15" font-weight="bold" fill="#111827">Encoding Speed (ops/s)</text>
  <text x="12" y="56" font-size="13" font-weight="600" fill="#374151">GameState State1</text>
  <text x="126" y="78" text-anchor="end" font-size="11" fill="#6b7280">JSON</text>
  <rect x="130" y="64" width="91" height="20" fill="#f59e0b" rx="3"/>
  <text x="227" y="78" font-size="11" fill="#374151" font-weight="500">571.1K</text>
  <text x="126" y="102" text-anchor="end" font-size="11" fill="#6b7280">MessagePack</text>
  <rect x="130" y="88" width="129" height="20" fill="#8b5cf6" rx="3"/>
  <text x="265" y="102" font-size="11" fill="#374151" font-weight="500">810.5K</text>
  <text x="126" y="126" text-anchor="end" font-size="11" fill="#6b7280">Protobuf</text>
  <rect x="130" y="112" width="177" height="20" fill="#3b82f6" rx="3"/>
  <text x="313" y="126" font-size="11" fill="#374151" font-weight="500">1.1M</text>
  <text x="126" y="150" text-anchor="end" font-size="11" fill="#6b7280">DeltaPack</text>
  <rect x="130" y="136" width="456" height="20" fill="#10b981" rx="3"/>
  <text x="592" y="150" font-size="11" fill="#374151" font-weight="500">2.9M</text>
  <text x="12" y="188" font-size="13" font-weight="600" fill="#374151">GameState State2</text>
  <text x="126" y="210" text-anchor="end" font-size="11" fill="#6b7280">JSON</text>
  <rect x="130" y="196" width="96" height="20" fill="#f59e0b" rx="3"/>
  <text x="232" y="210" font-size="11" fill="#374151" font-weight="500">383.0K</text>
  <text x="126" y="234" text-anchor="end" font-size="11" fill="#6b7280">MessagePack</text>
  <rect x="130" y="220" width="131" height="20" fill="#8b5cf6" rx="3"/>
  <text x="267" y="234" font-size="11" fill="#374151" font-weight="500">521.1K</text>
  <text x="126" y="258" text-anchor="end" font-size="11" fill="#6b7280">Protobuf</text>
  <rect x="130" y="244" width="263" height="20" fill="#3b82f6" rx="3"/>
  <text x="399" y="258" font-size="11" fill="#374151" font-weight="500">1.1M</text>
  <text x="126" y="282" text-anchor="end" font-size="11" fill="#6b7280">DeltaPack</text>
  <rect x="130" y="268" width="456" height="20" fill="#10b981" rx="3"/>
  <text x="592" y="282" font-size="11" fill="#374151" font-weight="500">1.8M</text>
  <text x="12" y="320" font-size="13" font-weight="600" fill="#374151">GameState State3</text>
  <text x="126" y="342" text-anchor="end" font-size="11" fill="#6b7280">JSON</text>
  <rect x="130" y="328" width="97" height="20" fill="#f59e0b" rx="3"/>
  <text x="233" y="342" font-size="11" fill="#374151" font-weight="500">297.9K</text>
  <text x="126" y="366" text-anchor="end" font-size="11" fill="#6b7280">MessagePack</text>
  <rect x="130" y="352" width="148" height="20" fill="#8b5cf6" rx="3"/>
  <text x="284" y="366" font-size="11" fill="#374151" font-weight="500">456.1K</text>
  <text x="126" y="390" text-anchor="end" font-size="11" fill="#6b7280">Protobuf</text>
  <rect x="130" y="376" width="255" height="20" fill="#3b82f6" rx="3"/>
  <text x="391" y="390" font-size="11" fill="#374151" font-weight="500">785.3K</text>
  <text x="126" y="414" text-anchor="end" font-size="11" fill="#6b7280">DeltaPack</text>
  <rect x="130" y="400" width="456" height="20" fill="#10b981" rx="3"/>
  <text x="592" y="414" font-size="11" fill="#374151" font-weight="500">1.4M</text>
  <text x="12" y="452" font-size="13" font-weight="600" fill="#374151">GameState State4</text>
  <text x="126" y="474" text-anchor="end" font-size="11" fill="#6b7280">JSON</text>
  <rect x="130" y="460" width="100" height="20" fill="#f59e0b" rx="3"/>
  <text x="236" y="474" font-size="11" fill="#374151" font-weight="500">281.0K</text>
  <text x="126" y="498" text-anchor="end" font-size="11" fill="#6b7280">MessagePack</text>
  <rect x="130" y="484" width="157" height="20" fill="#8b5cf6" rx="3"/>
  <text x="293" y="498" font-size="11" fill="#374151" font-weight="500">441.4K</text>
  <text x="126" y="522" text-anchor="end" font-size="11" fill="#6b7280">Protobuf</text>
  <rect x="130" y="508" width="245" height="20" fill="#3b82f6" rx="3"/>
  <text x="381" y="522" font-size="11" fill="#374151" font-weight="500">690.2K</text>
  <text x="126" y="546" text-anchor="end" font-size="11" fill="#6b7280">DeltaPack</text>
  <rect x="130" y="532" width="456" height="20" fill="#10b981" rx="3"/>
  <text x="592" y="546" font-size="11" fill="#374151" font-weight="500">1.3M</text>
  <text x="12" y="584" font-size="13" font-weight="600" fill="#374151">GameState State5</text>
  <text x="126" y="606" text-anchor="end" font-size="11" fill="#6b7280">JSON</text>
  <rect x="130" y="592" width="145" height="20" fill="#f59e0b" rx="3"/>
  <text x="281" y="606" font-size="11" fill="#374151" font-weight="500">137.5K</text>
  <text x="126" y="630" text-anchor="end" font-size="11" fill="#6b7280">MessagePack</text>
  <rect x="130" y="616" width="220" height="20" fill="#8b5cf6" rx="3"/>
  <text x="356" y="630" font-size="11" fill="#374151" font-weight="500">207.9K</text>
  <text x="126" y="654" text-anchor="end" font-size="11" fill="#6b7280">Protobuf</text>
  <rect x="130" y="640" width="333" height="20" fill="#3b82f6" rx="3"/>
  <text x="469" y="654" font-size="11" fill="#374151" font-weight="500">315.7K</text>
  <text x="126" y="678" text-anchor="end" font-size="11" fill="#6b7280">DeltaPack</text>
  <rect x="130" y="664" width="456" height="20" fill="#10b981" rx="3"/>
  <text x="592" y="678" font-size="11" fill="#374151" font-weight="500">431.8K</text>
  <text x="12" y="716" font-size="13" font-weight="600" fill="#374151">GameState State6</text>
  <text x="126" y="738" text-anchor="end" font-size="11" fill="#6b7280">JSON</text>
  <rect x="130" y="724" width="145" height="20" fill="#f59e0b" rx="3"/>
  <text x="281" y="738" font-size="11" fill="#374151" font-weight="500">137.7K</text>
  <text x="126" y="762" text-anchor="end" font-size="11" fill="#6b7280">MessagePack</text>
  <rect x="130" y="748" width="226" height="20" fill="#8b5cf6" rx="3"/>
  <text x="362" y="762" font-size="11" fill="#374151" font-weight="500">213.9K</text>
  <text x="126" y="786" text-anchor="end" font-size="11" fill="#6b7280">Protobuf</text>
  <rect x="130" y="772" width="338" height="20" fill="#3b82f6" rx="3"/>
  <text x="474" y="786" font-size="11" fill="#374151" font-weight="500">320.0K</text>
  <text x="126" y="810" text-anchor="end" font-size="11" fill="#6b7280">DeltaPack</text>
  <rect x="130" y="796" width="456" height="20" fill="#10b981" rx="3"/>
  <text x="592" y="810" font-size="11" fill="#374151" font-weight="500">431.6K</text>
  <text x="12" y="848" font-size="13" font-weight="600" fill="#374151">Primitives State1</text>
  <text x="126" y="870" text-anchor="end" font-size="11" fill="#6b7280">JSON</text>
  <rect x="130" y="856" width="141" height="20" fill="#f59e0b" rx="3"/>
  <text x="277" y="870" font-size="11" fill="#374151" font-weight="500">7.2M</text>
  <text x="126" y="894" text-anchor="end" font-size="11" fill="#6b7280">MessagePack</text>
  <rect x="130" y="880" width="137" height="20" fill="#8b5cf6" rx="3"/>
  <text x="273" y="894" font-size="11" fill="#374151" font-weight="500">7.0M</text>
  <text x="126" y="918" text-anchor="end" font-size="11" fill="#6b7280">Protobuf</text>
  <rect x="130" y="904" width="439" height="20" fill="#3b82f6" rx="3"/>
  <text x="575" y="918" font-size="11" fill="#374151" font-weight="500">22.4M</text>
  <text x="126" y="942" text-anchor="end" font-size="11" fill="#6b7280">DeltaPack</text>
  <rect x="130" y="928" width="456" height="20" fill="#10b981" rx="3"/>
  <text x="592" y="942" font-size="11" fill="#374151" font-weight="500">23.3M</text>
  <text x="12" y="980" font-size="13" font-weight="600" fill="#374151">Primitives State2</text>
  <text x="126" y="1002" text-anchor="end" font-size="11" fill="#6b7280">JSON</text>
  <rect x="130" y="988" width="141" height="20" fill="#f59e0b" rx="3"/>
  <text x="277" y="1002" font-size="11" fill="#374151" font-weight="500">7.6M</text>
  <text x="126" y="1026" text-anchor="end" font-size="11" fill="#6b7280">MessagePack</text>
  <rect x="130" y="1012" width="131" height="20" fill="#8b5cf6" rx="3"/>
  <text x="267" y="1026" font-size="11" fill="#374151" font-weight="500">7.1M</text>
  <text x="126" y="1050" text-anchor="end" font-size="11" fill="#6b7280">Protobuf</text>
  <rect x="130" y="1036" width="456" height="20" fill="#3b82f6" rx="3"/>
  <text x="592" y="1050" font-size="11" fill="#374151" font-weight="500">24.7M</text>
  <text x="126" y="1074" text-anchor="end" font-size="11" fill="#6b7280">DeltaPack</text>
  <rect x="130" y="1060" width="440" height="20" fill="#10b981" rx="3"/>
  <text x="576" y="1074" font-size="11" fill="#374151" font-weight="500">23.8M</text>
  <text x="12" y="1112" font-size="13" font-weight="600" fill="#374151">Test State1</text>
  <text x="126" y="1134" text-anchor="end" font-size="11" fill="#6b7280">JSON</text>
  <rect x="130" y="1120" width="145" height="20" fill="#f59e0b" rx="3"/>
  <text x="281" y="1134" font-size="11" fill="#374151" font-weight="500">3.7M</text>
  <text x="126" y="1158" text-anchor="end" font-size="11" fill="#6b7280">MessagePack</text>
  <rect x="130" y="1144" width="193" height="20" fill="#8b5cf6" rx="3"/>
  <text x="329" y="1158" font-size="11" fill="#374151" font-weight="500">4.9M</text>
  <text x="126" y="1182" text-anchor="end" font-size="11" fill="#6b7280">Protobuf</text>
  <rect x="130" y="1168" width="299" height="20" fill="#3b82f6" rx="3"/>
  <text x="435" y="1182" font-size="11" fill="#374151" font-weight="500">7.6M</text>
  <text x="126" y="1206" text-anchor="end" font-size="11" fill="#6b7280">DeltaPack</text>
  <rect x="130" y="1192" width="456" height="20" fill="#10b981" rx="3"/>
  <text x="592" y="1206" font-size="11" fill="#374151" font-weight="500">11.6M</text>
  <text x="12" y="1244" font-size="13" font-weight="600" fill="#374151">User State1</text>
  <text x="126" y="1266" text-anchor="end" font-size="11" fill="#6b7280">JSON</text>
  <rect x="130" y="1252" width="257" height="20" fill="#f59e0b" rx="3"/>
  <text x="393" y="1266" font-size="11" fill="#374151" font-weight="500">1.7M</text>
  <text x="126" y="1290" text-anchor="end" font-size="11" fill="#6b7280">MessagePack</text>
  <rect x="130" y="1276" width="218" height="20" fill="#8b5cf6" rx="3"/>
  <text x="354" y="1290" font-size="11" fill="#374151" font-weight="500">1.5M</text>
  <text x="126" y="1314" text-anchor="end" font-size="11" fill="#6b7280">Protobuf</text>
  <rect x="130" y="1300" width="456" height="20" fill="#3b82f6" rx="3"/>
  <text x="592" y="1314" font-size="11" fill="#374151" font-weight="500">3.1M</text>
  <text x="126" y="1338" text-anchor="end" font-size="11" fill="#6b7280">DeltaPack</text>
  <rect x="130" y="1324" width="422" height="20" fill="#10b981" rx="3"/>
  <text x="558" y="1338" font-size="11" fill="#374151" font-weight="500">2.8M</text>
  <text x="12" y="1376" font-size="13" font-weight="600" fill="#374151">User State2</text>
  <text x="126" y="1398" text-anchor="end" font-size="11" fill="#6b7280">JSON</text>
  <rect x="130" y="1384" width="235" height="20" fill="#f59e0b" rx="3"/>
  <text x="371" y="1398" font-size="11" fill="#374151" font-weight="500">1.1M</text>
  <text x="126" y="1422" text-anchor="end" font-size="11" fill="#6b7280">MessagePack</text>
  <rect x="130" y="1408" width="203" height="20" fill="#8b5cf6" rx="3"/>
  <text x="339" y="1422" font-size="11" fill="#374151" font-weight="500">983.6K</text>
  <text x="126" y="1446" text-anchor="end" font-size="11" fill="#6b7280">Protobuf</text>
  <rect x="130" y="1432" width="456" height="20" fill="#3b82f6" rx="3"/>
  <text x="592" y="1446" font-size="11" fill="#374151" font-weight="500">2.2M</text>
  <text x="126" y="1470" text-anchor="end" font-size="11" fill="#6b7280">DeltaPack</text>
  <rect x="130" y="1456" width="341" height="20" fill="#10b981" rx="3"/>
  <text x="477" y="1470" font-size="11" fill="#374151" font-weight="500">1.6M</text>
</svg>
